<?xml version="1.0" encoding="utf-8" standalone="no"?>
<!DOCTYPE svg PUBLIC "-//W3C//DTD SVG 1.1//EN"
  "http://www.w3.org/Graphics/SVG/1.1/DTD/svg11.dtd">
<svg xmlns:xlink="http://www.w3.org/1999/xlink" width="460.8pt" height="345.6pt" viewBox="0 0 460.8 345.6" xmlns="http://www.w3.org/2000/svg" version="1.1">
 <metadata>
  <rdf:RDF xmlns:dc="http://purl.org/dc/elements/1.1/" xmlns:cc="http://creativecommons.org/ns#" xmlns:rdf="http://www.w3.org/1999/02/22-rdf-syntax-ns#">
   <cc:Work>
    <dc:type rdf:resource="http://purl.org/dc/dcmitype/StillImage"/>
    <dc:date>2022-07-08T11:42:16.885565</dc:date>
    <dc:format>image/svg+xml</dc:format>
    <dc:creator>
     <cc:Agent>
      <dc:title>Matplotlib v3.5.1, https://matplotlib.org/</dc:title>
     </cc:Agent>
    </dc:creator>
   </cc:Work>
  </rdf:RDF>
 </metadata>
 <defs>
  <style type="text/css">*{stroke-linejoin: round; stroke-linecap: butt}</style>
 </defs>
 <g id="figure_1">
  <g id="patch_1">
   <path d="M 0 345.6 
L 460.8 345.6 
L 460.8 0 
L 0 0 
z
" style="fill: #ffffff"/>
  </g>
  <g id="patch_2">
   <path d="M 103.104 307.584 
L 369.216 307.584 
L 369.216 41.472 
L 103.104 41.472 
z
" style="fill: #ffffff"/>
  </g>
  <g id="pane3d_1">
   <g id="patch_3">
    <path d="M 132.736607 253.117431 
L 213.246091 184.1869 
L 211.84052 52.791704 
L 126.572128 114.339902 
" style="fill: #f2f2f2; opacity: 0.5; stroke: #f2f2f2; stroke-linejoin: miter"/>
   </g>
  </g>
  <g id="pane3d_2">
   <g id="patch_4">
    <path d="M 213.246091 184.1869 
L 343.203674 222.655675 
L 348.952471 87.074633 
L 211.84052 52.791704 
" style="fill: #e6e6e6; opacity: 0.5; stroke: #e6e6e6; stroke-linejoin: miter"/>
   </g>
  </g>
  <g id="pane3d_3">
   <g id="patch_5">
    <path d="M 132.736607 253.117431 
L 269.851415 298.296759 
L 343.203674 222.655675 
L 213.246091 184.1869 
" style="fill: #ececec; opacity: 0.5; stroke: #ececec; stroke-linejoin: miter"/>
   </g>
  </g>
  <g id="axis3d_1">
   <g id="line2d_1">
    <path d="M 132.736607 253.117431 
L 269.851415 298.296759 
" style="fill: none; stroke: #000000; stroke-width: 0.8; stroke-linecap: square"/>
   </g>
   <g id="Line3DCollection_1">
    <path d="M 160.644215 262.312988 
L 239.77566 192.039924 
L 239.776707 59.776757 
" style="fill: none; stroke: #b0b0b0; stroke-width: 0.8"/>
    <path d="M 191.567757 272.502295 
L 269.125161 200.727677 
L 270.714498 67.51232 
" style="fill: none; stroke: #b0b0b0; stroke-width: 0.8"/>
    <path d="M 223.182531 282.919362 
L 299.079667 209.594517 
L 302.324922 75.416066 
" style="fill: none; stroke: #b0b0b0; stroke-width: 0.8"/>
    <path d="M 255.511972 293.571913 
L 329.65808 218.64604 
L 334.630157 83.493539 
" style="fill: none; stroke: #b0b0b0; stroke-width: 0.8"/>
   </g>
   <g id="xtick_1">
    <g id="line2d_2">
     <path d="M 161.329053 261.704814 
L 159.271821 263.531748 
" style="fill: none; stroke: #000000; stroke-width: 0.8; stroke-linecap: square"/>
    </g>
    <g id="text_1">
     <!-- −2 -->
     <g transform="translate(146.511258 287.218124)scale(0.1 -0.1)">
      <defs>
       <path id="DejaVuSans-2212" d="M 678 2272 
L 4684 2272 
L 4684 1741 
L 678 1741 
L 678 2272 
z
" transform="scale(0.015625)"/>
       <path id="DejaVuSans-32" d="M 1228 531 
L 3431 531 
L 3431 0 
L 469 0 
L 469 531 
Q 828 903 1448 1529 
Q 2069 2156 2228 2338 
Q 2531 2678 2651 2914 
Q 2772 3150 2772 3378 
Q 2772 3750 2511 3984 
Q 2250 4219 1831 4219 
Q 1534 4219 1204 4116 
Q 875 4013 500 3803 
L 500 4441 
Q 881 4594 1212 4672 
Q 1544 4750 1819 4750 
Q 2544 4750 2975 4387 
Q 3406 4025 3406 3419 
Q 3406 3131 3298 2873 
Q 3191 2616 2906 2266 
Q 2828 2175 2409 1742 
Q 1991 1309 1228 531 
z
" transform="scale(0.015625)"/>
      </defs>
      <use xlink:href="#DejaVuSans-2212"/>
      <use xlink:href="#DejaVuSans-32" x="83.789062"/>
     </g>
    </g>
   </g>
   <g id="xtick_2">
    <g id="line2d_3">
     <path d="M 192.239534 271.880607 
L 190.22151 273.748164 
" style="fill: none; stroke: #000000; stroke-width: 0.8; stroke-linecap: square"/>
    </g>
    <g id="text_2">
     <!-- −1 -->
     <g transform="translate(177.431411 297.622729)scale(0.1 -0.1)">
      <defs>
       <path id="DejaVuSans-31" d="M 794 531 
L 1825 531 
L 1825 4091 
L 703 3866 
L 703 4441 
L 1819 4666 
L 2450 4666 
L 2450 531 
L 3481 531 
L 3481 0 
L 794 0 
L 794 531 
z
" transform="scale(0.015625)"/>
      </defs>
      <use xlink:href="#DejaVuSans-2212"/>
      <use xlink:href="#DejaVuSans-31" x="83.789062"/>
     </g>
    </g>
   </g>
   <g id="xtick_3">
    <g id="line2d_4">
     <path d="M 223.840487 282.283704 
L 221.863949 284.193255 
" style="fill: none; stroke: #000000; stroke-width: 0.8; stroke-linecap: square"/>
    </g>
    <g id="text_3">
     <!-- 0 -->
     <g transform="translate(213.234179 308.26045)scale(0.1 -0.1)">
      <defs>
       <path id="DejaVuSans-30" d="M 2034 4250 
Q 1547 4250 1301 3770 
Q 1056 3291 1056 2328 
Q 1056 1369 1301 889 
Q 1547 409 2034 409 
Q 2525 409 2770 889 
Q 3016 1369 3016 2328 
Q 3016 3291 2770 3770 
Q 2525 4250 2034 4250 
z
M 2034 4750 
Q 2819 4750 3233 4129 
Q 3647 3509 3647 2328 
Q 3647 1150 3233 529 
Q 2819 -91 2034 -91 
Q 1250 -91 836 529 
Q 422 1150 422 2328 
Q 422 3509 836 4129 
Q 1250 4750 2034 4750 
z
" transform="scale(0.015625)"/>
      </defs>
      <use xlink:href="#DejaVuSans-30"/>
     </g>
    </g>
   </g>
   <g id="xtick_4">
    <g id="line2d_5">
     <path d="M 256.15531 292.921809 
L 254.222659 294.874785 
" style="fill: none; stroke: #000000; stroke-width: 0.8; stroke-linecap: square"/>
    </g>
    <g id="text_4">
     <!-- 1 -->
     <g transform="translate(245.56342 319.139212)scale(0.1 -0.1)">
      <use xlink:href="#DejaVuSans-31"/>
     </g>
    </g>
   </g>
  </g>
  <g id="axis3d_2">
   <g id="line2d_6">
    <path d="M 343.203674 222.655675 
L 269.851415 298.296759 
" style="fill: none; stroke: #000000; stroke-width: 0.8; stroke-linecap: square"/>
   </g>
   <g id="Line3DCollection_2">
    <path d="M 145.811134 100.452855 
L 150.840876 237.616936 
L 286.393991 281.238001 
" style="fill: none; stroke: #b0b0b0; stroke-width: 0.8"/>
    <path d="M 165.919795 85.938076 
L 169.801406 221.383328 
L 303.689198 263.403129 
" style="fill: none; stroke: #b0b0b0; stroke-width: 0.8"/>
    <path d="M 185.274772 71.96732 
L 188.087979 205.726748 
L 320.340864 246.231878 
" style="fill: none; stroke: #b0b0b0; stroke-width: 0.8"/>
    <path d="M 203.917656 58.510564 
L 205.735901 190.616968 
L 336.384251 229.687886 
" style="fill: none; stroke: #b0b0b0; stroke-width: 0.8"/>
   </g>
   <g id="xtick_5">
    <g id="line2d_7">
     <path d="M 285.257283 280.872208 
L 288.670062 281.970442 
" style="fill: none; stroke: #000000; stroke-width: 0.8; stroke-linecap: square"/>
    </g>
    <g id="text_5">
     <!-- −2 -->
     <g transform="translate(290.592463 303.714538)scale(0.1 -0.1)">
      <use xlink:href="#DejaVuSans-2212"/>
      <use xlink:href="#DejaVuSans-32" x="83.789062"/>
     </g>
    </g>
   </g>
   <g id="xtick_6">
    <g id="line2d_8">
     <path d="M 302.567433 263.05107 
L 305.935298 264.108052 
" style="fill: none; stroke: #000000; stroke-width: 0.8; stroke-linecap: square"/>
    </g>
    <g id="text_6">
     <!-- −1 -->
     <g transform="translate(307.657894 285.608702)scale(0.1 -0.1)">
      <use xlink:href="#DejaVuSans-2212"/>
      <use xlink:href="#DejaVuSans-31" x="83.789062"/>
     </g>
    </g>
   </g>
   <g id="xtick_7">
    <g id="line2d_9">
     <path d="M 319.233728 245.892795 
L 322.557626 246.910806 
" style="fill: none; stroke: #000000; stroke-width: 0.8; stroke-linecap: square"/>
    </g>
    <g id="text_7">
     <!-- 0 -->
     <g transform="translate(328.278559 268.176166)scale(0.1 -0.1)">
      <use xlink:href="#DejaVuSans-30"/>
     </g>
    </g>
   </g>
   <g id="xtick_8">
    <g id="line2d_10">
     <path d="M 335.291433 229.361074 
L 338.5723 230.342231 
" style="fill: none; stroke: #000000; stroke-width: 0.8; stroke-linecap: square"/>
    </g>
    <g id="text_8">
     <!-- 1 -->
     <g transform="translate(344.109522 251.380057)scale(0.1 -0.1)">
      <use xlink:href="#DejaVuSans-31"/>
     </g>
    </g>
   </g>
  </g>
  <g id="axis3d_3">
   <g id="line2d_11">
    <path d="M 343.203674 222.655675 
L 348.952471 87.074633 
" style="fill: none; stroke: #000000; stroke-width: 0.8; stroke-linecap: square"/>
   </g>
   <g id="Line3DCollection_3">
    <path d="M 344.368388 195.186773 
L 212.96077 157.514643 
L 131.489587 225.043954 
" style="fill: none; stroke: #b0b0b0; stroke-width: 0.8"/>
    <path d="M 345.662163 164.674064 
L 212.644162 127.917525 
L 130.103248 193.834067 
" style="fill: none; stroke: #b0b0b0; stroke-width: 0.8"/>
    <path d="M 346.98834 133.397183 
L 212.319982 97.612617 
L 128.680945 161.814535 
" style="fill: none; stroke: #b0b0b0; stroke-width: 0.8"/>
    <path d="M 348.348151 101.327059 
L 211.987955 66.574221 
L 127.221259 128.953439 
" style="fill: none; stroke: #b0b0b0; stroke-width: 0.8"/>
   </g>
   <g id="xtick_9">
    <g id="line2d_12">
     <path d="M 343.269063 194.871617 
L 346.569474 195.817783 
" style="fill: none; stroke: #000000; stroke-width: 0.8; stroke-linecap: square"/>
    </g>
    <g id="text_9">
     <!-- −2 -->
     <g transform="translate(354.016566 200.398183)scale(0.1 -0.1)">
      <use xlink:href="#DejaVuSans-2212"/>
      <use xlink:href="#DejaVuSans-32" x="83.789062"/>
     </g>
    </g>
   </g>
   <g id="xtick_10">
    <g id="line2d_13">
     <path d="M 344.548764 164.366402 
L 347.891458 165.29008 
" style="fill: none; stroke: #000000; stroke-width: 0.8; stroke-linecap: square"/>
    </g>
    <g id="text_10">
     <!-- −1 -->
     <g transform="translate(355.516571 169.942301)scale(0.1 -0.1)">
      <use xlink:href="#DejaVuSans-2212"/>
      <use xlink:href="#DejaVuSans-31" x="83.789062"/>
     </g>
    </g>
   </g>
   <g id="xtick_11">
    <g id="line2d_14">
     <path d="M 345.860503 133.09749 
L 349.246575 133.99725 
" style="fill: none; stroke: #000000; stroke-width: 0.8; stroke-linecap: square"/>
    </g>
    <g id="text_11">
     <!-- 0 -->
     <g transform="translate(361.243879 138.725852)scale(0.1 -0.1)">
      <use xlink:href="#DejaVuSans-30"/>
     </g>
    </g>
   </g>
   <g id="xtick_12">
    <g id="line2d_15">
     <path d="M 347.205497 101.035841 
L 350.636087 101.910163 
" style="fill: none; stroke: #000000; stroke-width: 0.8; stroke-linecap: square"/>
    </g>
    <g id="text_12">
     <!-- 1 -->
     <g transform="translate(362.820224 106.719987)scale(0.1 -0.1)">
      <use xlink:href="#DejaVuSans-31"/>
     </g>
    </g>
   </g>
  </g>
  <g id="axes_1">
   <g id="line2d_16">
    <path d="M 234.47944 173.49677 
L 236.188219 171.865676 
L 237.870968 169.939595 
L 239.368194 167.861075 
L 240.670536 165.644351 
L 241.769964 163.304478 
L 242.659818 160.857225 
L 243.334837 158.31897 
L 243.79117 155.706586 
L 244.02639 153.037333 
L 244.039492 150.328749 
L 243.830886 147.59854 
L 243.40238 144.864472 
L 242.757157 142.144264 
L 241.899749 139.455488 
L 240.835998 136.815463 
L 239.573017 134.241158 
L 238.119139 131.749097 
L 236.350861 129.175636 
L 234.385535 126.735232 
L 232.237872 124.446059 
L 229.923888 122.325203 
L 227.460799 120.38855 
L 224.866907 118.650675 
L 222.161487 117.124749 
L 219.56702 115.90782 
L 216.910388 114.891838 
L 214.20869 114.083688 
L 211.479367 113.488975 
L 208.740095 113.11198 
L 206.008689 112.955623 
L 203.302995 113.021433 
L 200.640778 113.309529 
L 198.039616 113.8186 
L 195.516786 114.545903 
L 193.089156 115.487257 
L 190.773064 116.637061 
L 188.584218 117.988309 
L 186.537573 119.532618 
L 184.78679 121.121107 
L 183.179568 122.85721 
L 181.725511 124.73141 
L 180.433392 126.733341 
L 179.311095 128.851835 
L 178.29493 131.264583 
L 177.493679 133.784114 
L 176.913388 136.393566 
L 176.558595 139.075364 
L 176.432286 141.811338 
L 176.535855 144.582849 
L 176.869082 147.370927 
L 177.430122 150.156407 
L 178.215501 152.920072 
L 179.22014 155.6428 
L 180.437376 158.305704 
L 181.859009 160.890285 
L 183.475358 163.378567 
L 185.275331 165.753244 
L 187.246503 167.997809 
L 189.375218 170.096684 
L 191.646685 172.035341 
L 194.045097 173.800409 
L 196.553755 175.37978 
L 199.155195 176.762696 
L 201.831324 177.939826 
L 204.563566 178.90333 
L 207.332996 179.646914 
L 210.120494 180.165861 
L 212.906882 180.457064 
L 215.673071 180.51903 
L 218.400201 180.351879 
L 221.069776 179.957329 
L 223.663794 179.33867 
L 226.164871 178.500719 
L 228.556362 177.449773 
L 230.822464 176.193547 
L 232.94832 174.741106 
L 234.47944 173.49677 
L 234.47944 173.49677 
" clip-path="url(#p0603ffe38c)" style="fill: none; stroke: #1f77b4; stroke-width: 1.5; stroke-linecap: square"/>
   </g>
   <g id="Path3DCollection_1">
    <defs>
     <path id="me81d0bc0d3" d="M 0 2.236068 
C 0.593012 2.236068 1.161816 2.000462 1.581139 1.581139 
C 2.000462 1.161816 2.236068 0.593012 2.236068 0 
C 2.236068 -0.593012 2.000462 -1.161816 1.581139 -1.581139 
C 1.161816 -2.000462 0.593012 -2.236068 0 -2.236068 
C -0.593012 -2.236068 -1.161816 -2.000462 -1.581139 -1.581139 
C -2.000462 -1.161816 -2.236068 -0.593012 -2.236068 0 
C -2.236068 0.593012 -2.000462 1.161816 -1.581139 1.581139 
C -1.161816 2.000462 -0.593012 2.236068 0 2.236068 
z
" style="stroke: #1f77b4"/>
    </defs>
    <g clip-path="url(#p0603ffe38c)">
     <use xlink:href="#me81d0bc0d3" x="276.722193" y="142.543817" style="fill: #1f77b4; stroke: #1f77b4"/>
    </g>
   </g>
   <g id="text_13">
    <!-- x -->
    <g transform="translate(293.438774 147.145398)scale(0.1 -0.1)">
     <defs>
      <path id="DejaVuSans-78" d="M 3513 3500 
L 2247 1797 
L 3578 0 
L 2900 0 
L 1881 1375 
L 863 0 
L 184 0 
L 1544 1831 
L 300 3500 
L 978 3500 
L 1906 2253 
L 2834 3500 
L 3513 3500 
z
" transform="scale(0.015625)"/>
     </defs>
     <use xlink:href="#DejaVuSans-78"/>
    </g>
   </g>
   <g id="text_14">
    <!-- y -->
    <g transform="translate(285.742377 134.696639)scale(0.1 -0.1)">
     <defs>
      <path id="DejaVuSans-79" d="M 2059 -325 
Q 1816 -950 1584 -1140 
Q 1353 -1331 966 -1331 
L 506 -1331 
L 506 -850 
L 844 -850 
Q 1081 -850 1212 -737 
Q 1344 -625 1503 -206 
L 1606 56 
L 191 3500 
L 800 3500 
L 1894 763 
L 2988 3500 
L 3597 3500 
L 2059 -325 
z
" transform="scale(0.015625)"/>
     </defs>
     <use xlink:href="#DejaVuSans-79"/>
    </g>
   </g>
   <g id="text_15">
    <!-- z -->
    <g transform="translate(276.96729 125.836425)scale(0.1 -0.1)">
     <defs>
      <path id="DejaVuSans-7a" d="M 353 3500 
L 3084 3500 
L 3084 2975 
L 922 459 
L 3084 459 
L 3084 0 
L 275 0 
L 275 525 
L 2438 3041 
L 353 3041 
L 353 3500 
z
" transform="scale(0.015625)"/>
     </defs>
     <use xlink:href="#DejaVuSans-7a"/>
    </g>
   </g>
   <g id="Line3DCollection_4">
    <path d="M 285.398712 134.995613 
L 276.722193 142.543817 
" clip-path="url(#p0603ffe38c)" style="fill: none; stroke: #1f77b4; stroke-width: 1.5"/>
    <path d="M 285.398712 134.995613 
L 282.880235 138.401122 
" clip-path="url(#p0603ffe38c)" style="fill: none; stroke: #1f77b4; stroke-width: 1.5"/>
    <path d="M 285.398712 134.995613 
L 282.922385 135.934185 
" clip-path="url(#p0603ffe38c)" style="fill: none; stroke: #1f77b4; stroke-width: 1.5"/>
   </g>
   <g id="Line3DCollection_5">
    <path d="M 292.792282 146.967438 
L 276.722193 142.543817 
" clip-path="url(#p0603ffe38c)" style="fill: none; stroke: #1f77b4; stroke-width: 1.5"/>
    <path d="M 292.792282 146.967438 
L 288.093454 146.922389 
" clip-path="url(#p0603ffe38c)" style="fill: none; stroke: #1f77b4; stroke-width: 1.5"/>
    <path d="M 292.792282 146.967438 
L 288.141203 144.4375 
" clip-path="url(#p0603ffe38c)" style="fill: none; stroke: #1f77b4; stroke-width: 1.5"/>
   </g>
   <g id="Line3DCollection_6">
    <path d="M 276.957803 126.483113 
L 276.722193 142.543817 
" clip-path="url(#p0603ffe38c)" style="fill: none; stroke: #1f77b4; stroke-width: 1.5"/>
    <path d="M 276.957803 126.483113 
L 275.643145 130.820057 
" clip-path="url(#p0603ffe38c)" style="fill: none; stroke: #1f77b4; stroke-width: 1.5"/>
    <path d="M 276.957803 126.483113 
L 278.136361 131.496585 
" clip-path="url(#p0603ffe38c)" style="fill: none; stroke: #1f77b4; stroke-width: 1.5"/>
   </g>
   <g id="Path3DCollection_2">
    <defs>
     <path id="C0_0_81be46f1ba" d="M 0 2.236068 
C 0.593012 2.236068 1.161816 2.000462 1.581139 1.581139 
C 2.000462 1.161816 2.236068 0.593012 2.236068 -0 
C 2.236068 -0.593012 2.000462 -1.161816 1.581139 -1.581139 
C 1.161816 -2.000462 0.593012 -2.236068 0 -2.236068 
C -0.593012 -2.236068 -1.161816 -2.000462 -1.581139 -1.581139 
C -2.000462 -1.161816 -2.236068 -0.593012 -2.236068 0 
C -2.236068 0.593012 -2.000462 1.161816 -1.581139 1.581139 
C -1.161816 2.000462 -0.593012 2.236068 0 2.236068 
z
"/>
    </defs>
    <g clip-path="url(#p0603ffe38c)">
     <use xlink:href="#C0_0_81be46f1ba" x="221.17636" y="116.764702" style="fill: #ff0000; fill-opacity: 0.3; stroke: #ff0000; stroke-opacity: 0.3"/>
    </g>
    <g clip-path="url(#p0603ffe38c)">
     <use xlink:href="#C0_0_81be46f1ba" x="236.400575" y="127.251352" style="fill: #ff0000; fill-opacity: 0.3028; stroke: #ff0000; stroke-opacity: 0.3028"/>
    </g>
    <g clip-path="url(#p0603ffe38c)">
     <use xlink:href="#C0_0_81be46f1ba" x="233.637605" y="121.301544" style="fill: #ff0000; fill-opacity: 0.324431; stroke: #ff0000; stroke-opacity: 0.324431"/>
    </g>
    <g clip-path="url(#p0603ffe38c)">
     <use xlink:href="#C0_0_81be46f1ba" x="245.277984" y="145.529006" style="fill: #ff0000; fill-opacity: 0.343405; stroke: #ff0000; stroke-opacity: 0.343405"/>
    </g>
    <g clip-path="url(#p0603ffe38c)">
     <use xlink:href="#C0_0_81be46f1ba" x="231.698472" y="126.982956" style="fill: #ff0000; fill-opacity: 0.358045; stroke: #ff0000; stroke-opacity: 0.358045"/>
    </g>
    <g clip-path="url(#p0603ffe38c)">
     <use xlink:href="#C0_0_81be46f1ba" x="239.870757" y="137.656333" style="fill: #ff0000; fill-opacity: 0.359194; stroke: #ff0000; stroke-opacity: 0.359194"/>
    </g>
    <g clip-path="url(#p0603ffe38c)">
     <use xlink:href="#C0_0_81be46f1ba" x="237.836984" y="128.496179" style="fill: #ff0000; fill-opacity: 0.363742; stroke: #ff0000; stroke-opacity: 0.363742"/>
    </g>
    <g clip-path="url(#p0603ffe38c)">
     <use xlink:href="#C0_0_81be46f1ba" x="234.547481" y="130.779958" style="fill: #ff0000; fill-opacity: 0.366124; stroke: #ff0000; stroke-opacity: 0.366124"/>
    </g>
    <g clip-path="url(#p0603ffe38c)">
     <use xlink:href="#C0_0_81be46f1ba" x="227.994533" y="119.962998" style="fill: #ff0000; fill-opacity: 0.371413; stroke: #ff0000; stroke-opacity: 0.371413"/>
    </g>
    <g clip-path="url(#p0603ffe38c)">
     <use xlink:href="#C0_0_81be46f1ba" x="224.450151" y="109.220027" style="fill: #ff0000; fill-opacity: 0.371674; stroke: #ff0000; stroke-opacity: 0.371674"/>
    </g>
    <g clip-path="url(#p0603ffe38c)">
     <use xlink:href="#C0_0_81be46f1ba" x="220.199189" y="119.652383" style="fill: #ff0000; fill-opacity: 0.374443; stroke: #ff0000; stroke-opacity: 0.374443"/>
    </g>
    <g clip-path="url(#p0603ffe38c)">
     <use xlink:href="#C0_0_81be46f1ba" x="227.333411" y="122.363095" style="fill: #ff0000; fill-opacity: 0.381196; stroke: #ff0000; stroke-opacity: 0.381196"/>
    </g>
    <g clip-path="url(#p0603ffe38c)">
     <use xlink:href="#C0_0_81be46f1ba" x="245.633104" y="141.101294" style="fill: #ff0000; fill-opacity: 0.387181; stroke: #ff0000; stroke-opacity: 0.387181"/>
    </g>
    <g clip-path="url(#p0603ffe38c)">
     <use xlink:href="#C0_0_81be46f1ba" x="225.44169" y="113.0609" style="fill: #ff0000; fill-opacity: 0.403041; stroke: #ff0000; stroke-opacity: 0.403041"/>
    </g>
    <g clip-path="url(#p0603ffe38c)">
     <use xlink:href="#C0_0_81be46f1ba" x="228.440434" y="119.394989" style="fill: #ff0000; fill-opacity: 0.407791; stroke: #ff0000; stroke-opacity: 0.407791"/>
    </g>
    <g clip-path="url(#p0603ffe38c)">
     <use xlink:href="#C0_0_81be46f1ba" x="225.424916" y="113.681985" style="fill: #ff0000; fill-opacity: 0.409641; stroke: #ff0000; stroke-opacity: 0.409641"/>
    </g>
    <g clip-path="url(#p0603ffe38c)">
     <use xlink:href="#C0_0_81be46f1ba" x="228.339236" y="125.598901" style="fill: #ff0000; fill-opacity: 0.416843; stroke: #ff0000; stroke-opacity: 0.416843"/>
    </g>
    <g clip-path="url(#p0603ffe38c)">
     <use xlink:href="#C0_0_81be46f1ba" x="213.337861" y="114.228408" style="fill: #ff0000; fill-opacity: 0.418186; stroke: #ff0000; stroke-opacity: 0.418186"/>
    </g>
    <g clip-path="url(#p0603ffe38c)">
     <use xlink:href="#C0_0_81be46f1ba" x="210.67057" y="116.254092" style="fill: #ff0000; fill-opacity: 0.420723; stroke: #ff0000; stroke-opacity: 0.420723"/>
    </g>
    <g clip-path="url(#p0603ffe38c)">
     <use xlink:href="#C0_0_81be46f1ba" x="242.908408" y="146.275384" style="fill: #ff0000; fill-opacity: 0.422539; stroke: #ff0000; stroke-opacity: 0.422539"/>
    </g>
    <g clip-path="url(#p0603ffe38c)">
     <use xlink:href="#C0_0_81be46f1ba" x="235.163323" y="130.192985" style="fill: #ff0000; fill-opacity: 0.423428; stroke: #ff0000; stroke-opacity: 0.423428"/>
    </g>
    <g clip-path="url(#p0603ffe38c)">
     <use xlink:href="#C0_0_81be46f1ba" x="227.498871" y="114.132205" style="fill: #ff0000; fill-opacity: 0.424508; stroke: #ff0000; stroke-opacity: 0.424508"/>
    </g>
    <g clip-path="url(#p0603ffe38c)">
     <use xlink:href="#C0_0_81be46f1ba" x="236.687381" y="143.862921" style="fill: #ff0000; fill-opacity: 0.435514; stroke: #ff0000; stroke-opacity: 0.435514"/>
    </g>
    <g clip-path="url(#p0603ffe38c)">
     <use xlink:href="#C0_0_81be46f1ba" x="231.848594" y="122.471937" style="fill: #ff0000; fill-opacity: 0.459001; stroke: #ff0000; stroke-opacity: 0.459001"/>
    </g>
    <g clip-path="url(#p0603ffe38c)">
     <use xlink:href="#C0_0_81be46f1ba" x="216.207849" y="117.900561" style="fill: #ff0000; fill-opacity: 0.465768; stroke: #ff0000; stroke-opacity: 0.465768"/>
    </g>
    <g clip-path="url(#p0603ffe38c)">
     <use xlink:href="#C0_0_81be46f1ba" x="240.618631" y="134.319004" style="fill: #ff0000; fill-opacity: 0.477178; stroke: #ff0000; stroke-opacity: 0.477178"/>
    </g>
    <g clip-path="url(#p0603ffe38c)">
     <use xlink:href="#C0_0_81be46f1ba" x="206.756478" y="117.661493" style="fill: #ff0000; fill-opacity: 0.479487; stroke: #ff0000; stroke-opacity: 0.479487"/>
    </g>
    <g clip-path="url(#p0603ffe38c)">
     <use xlink:href="#C0_0_81be46f1ba" x="198.970429" y="104.643702" style="fill: #ff0000; fill-opacity: 0.479504; stroke: #ff0000; stroke-opacity: 0.479504"/>
    </g>
    <g clip-path="url(#p0603ffe38c)">
     <use xlink:href="#C0_0_81be46f1ba" x="221.241524" y="115.772967" style="fill: #ff0000; fill-opacity: 0.479863; stroke: #ff0000; stroke-opacity: 0.479863"/>
    </g>
    <g clip-path="url(#p0603ffe38c)">
     <use xlink:href="#C0_0_81be46f1ba" x="191.515271" y="121.304377" style="fill: #ff0000; fill-opacity: 0.489802; stroke: #ff0000; stroke-opacity: 0.489802"/>
    </g>
    <g clip-path="url(#p0603ffe38c)">
     <use xlink:href="#C0_0_81be46f1ba" x="206.470799" y="112.098189" style="fill: #ff0000; fill-opacity: 0.494781; stroke: #ff0000; stroke-opacity: 0.494781"/>
    </g>
    <g clip-path="url(#p0603ffe38c)">
     <use xlink:href="#C0_0_81be46f1ba" x="207.089205" y="112.174309" style="fill: #ff0000; fill-opacity: 0.499167; stroke: #ff0000; stroke-opacity: 0.499167"/>
    </g>
    <g clip-path="url(#p0603ffe38c)">
     <use xlink:href="#C0_0_81be46f1ba" x="207.210147" y="113.749975" style="fill: #ff0000; fill-opacity: 0.501996; stroke: #ff0000; stroke-opacity: 0.501996"/>
    </g>
    <g clip-path="url(#p0603ffe38c)">
     <use xlink:href="#C0_0_81be46f1ba" x="199.787185" y="115.615756" style="fill: #ff0000; fill-opacity: 0.505607; stroke: #ff0000; stroke-opacity: 0.505607"/>
    </g>
    <g clip-path="url(#p0603ffe38c)">
     <use xlink:href="#C0_0_81be46f1ba" x="211.272752" y="117.126772" style="fill: #ff0000; fill-opacity: 0.51159; stroke: #ff0000; stroke-opacity: 0.51159"/>
    </g>
    <g clip-path="url(#p0603ffe38c)">
     <use xlink:href="#C0_0_81be46f1ba" x="186.254241" y="121.813479" style="fill: #ff0000; fill-opacity: 0.512308; stroke: #ff0000; stroke-opacity: 0.512308"/>
    </g>
    <g clip-path="url(#p0603ffe38c)">
     <use xlink:href="#C0_0_81be46f1ba" x="202.431635" y="118.260479" style="fill: #ff0000; fill-opacity: 0.530386; stroke: #ff0000; stroke-opacity: 0.530386"/>
    </g>
    <g clip-path="url(#p0603ffe38c)">
     <use xlink:href="#C0_0_81be46f1ba" x="192.532039" y="109.299237" style="fill: #ff0000; fill-opacity: 0.531658; stroke: #ff0000; stroke-opacity: 0.531658"/>
    </g>
    <g clip-path="url(#p0603ffe38c)">
     <use xlink:href="#C0_0_81be46f1ba" x="192.021468" y="121.19919" style="fill: #ff0000; fill-opacity: 0.534409; stroke: #ff0000; stroke-opacity: 0.534409"/>
    </g>
    <g clip-path="url(#p0603ffe38c)">
     <use xlink:href="#C0_0_81be46f1ba" x="226.301191" y="118.754257" style="fill: #ff0000; fill-opacity: 0.543033; stroke: #ff0000; stroke-opacity: 0.543033"/>
    </g>
    <g clip-path="url(#p0603ffe38c)">
     <use xlink:href="#C0_0_81be46f1ba" x="204.950904" y="109.547779" style="fill: #ff0000; fill-opacity: 0.548753; stroke: #ff0000; stroke-opacity: 0.548753"/>
    </g>
    <g clip-path="url(#p0603ffe38c)">
     <use xlink:href="#C0_0_81be46f1ba" x="225.225848" y="124.199745" style="fill: #ff0000; fill-opacity: 0.556177; stroke: #ff0000; stroke-opacity: 0.556177"/>
    </g>
    <g clip-path="url(#p0603ffe38c)">
     <use xlink:href="#C0_0_81be46f1ba" x="178.727454" y="123.439517" style="fill: #ff0000; fill-opacity: 0.585018; stroke: #ff0000; stroke-opacity: 0.585018"/>
    </g>
    <g clip-path="url(#p0603ffe38c)">
     <use xlink:href="#C0_0_81be46f1ba" x="196.295499" y="113.372533" style="fill: #ff0000; fill-opacity: 0.587549; stroke: #ff0000; stroke-opacity: 0.587549"/>
    </g>
    <g clip-path="url(#p0603ffe38c)">
     <use xlink:href="#C0_0_81be46f1ba" x="184.997853" y="113.985167" style="fill: #ff0000; fill-opacity: 0.592575; stroke: #ff0000; stroke-opacity: 0.592575"/>
    </g>
    <g clip-path="url(#p0603ffe38c)">
     <use xlink:href="#C0_0_81be46f1ba" x="209.047889" y="115.140732" style="fill: #ff0000; fill-opacity: 0.592725; stroke: #ff0000; stroke-opacity: 0.592725"/>
    </g>
    <g clip-path="url(#p0603ffe38c)">
     <use xlink:href="#C0_0_81be46f1ba" x="205.774878" y="115.646143" style="fill: #ff0000; fill-opacity: 0.59703; stroke: #ff0000; stroke-opacity: 0.59703"/>
    </g>
    <g clip-path="url(#p0603ffe38c)">
     <use xlink:href="#C0_0_81be46f1ba" x="189.363433" y="119.547318" style="fill: #ff0000; fill-opacity: 0.609678; stroke: #ff0000; stroke-opacity: 0.609678"/>
    </g>
    <g clip-path="url(#p0603ffe38c)">
     <use xlink:href="#C0_0_81be46f1ba" x="191.797268" y="118.01153" style="fill: #ff0000; fill-opacity: 0.617943; stroke: #ff0000; stroke-opacity: 0.617943"/>
    </g>
    <g clip-path="url(#p0603ffe38c)">
     <use xlink:href="#C0_0_81be46f1ba" x="188.756848" y="120.134129" style="fill: #ff0000; fill-opacity: 0.619124; stroke: #ff0000; stroke-opacity: 0.619124"/>
    </g>
    <g clip-path="url(#p0603ffe38c)">
     <use xlink:href="#C0_0_81be46f1ba" x="183.959902" y="134.990347" style="fill: #ff0000; fill-opacity: 0.67447; stroke: #ff0000; stroke-opacity: 0.67447"/>
    </g>
    <g clip-path="url(#p0603ffe38c)">
     <use xlink:href="#C0_0_81be46f1ba" x="191.258755" y="117.617609" style="fill: #ff0000; fill-opacity: 0.679345; stroke: #ff0000; stroke-opacity: 0.679345"/>
    </g>
    <g clip-path="url(#p0603ffe38c)">
     <use xlink:href="#C0_0_81be46f1ba" x="181.367776" y="129.413911" style="fill: #ff0000; fill-opacity: 0.7053; stroke: #ff0000; stroke-opacity: 0.7053"/>
    </g>
    <g clip-path="url(#p0603ffe38c)">
     <use xlink:href="#C0_0_81be46f1ba" x="185.30373" y="124.21513" style="fill: #ff0000; fill-opacity: 0.710967; stroke: #ff0000; stroke-opacity: 0.710967"/>
    </g>
    <g clip-path="url(#p0603ffe38c)">
     <use xlink:href="#C0_0_81be46f1ba" x="188.431506" y="116.321655" style="fill: #ff0000; fill-opacity: 0.716617; stroke: #ff0000; stroke-opacity: 0.716617"/>
    </g>
    <g clip-path="url(#p0603ffe38c)">
     <use xlink:href="#C0_0_81be46f1ba" x="176.015108" y="132.114781" style="fill: #ff0000; fill-opacity: 0.718509; stroke: #ff0000; stroke-opacity: 0.718509"/>
    </g>
    <g clip-path="url(#p0603ffe38c)">
     <use xlink:href="#C0_0_81be46f1ba" x="180.445682" y="119.851463" style="fill: #ff0000; fill-opacity: 0.724757; stroke: #ff0000; stroke-opacity: 0.724757"/>
    </g>
    <g clip-path="url(#p0603ffe38c)">
     <use xlink:href="#C0_0_81be46f1ba" x="185.865664" y="130.919969" style="fill: #ff0000; fill-opacity: 0.727109; stroke: #ff0000; stroke-opacity: 0.727109"/>
    </g>
    <g clip-path="url(#p0603ffe38c)">
     <use xlink:href="#C0_0_81be46f1ba" x="184.247635" y="123.26511" style="fill: #ff0000; fill-opacity: 0.728555; stroke: #ff0000; stroke-opacity: 0.728555"/>
    </g>
    <g clip-path="url(#p0603ffe38c)">
     <use xlink:href="#C0_0_81be46f1ba" x="173.947965" y="141.606242" style="fill: #ff0000; fill-opacity: 0.736213; stroke: #ff0000; stroke-opacity: 0.736213"/>
    </g>
    <g clip-path="url(#p0603ffe38c)">
     <use xlink:href="#C0_0_81be46f1ba" x="178.759137" y="137.962081" style="fill: #ff0000; fill-opacity: 0.760373; stroke: #ff0000; stroke-opacity: 0.760373"/>
    </g>
    <g clip-path="url(#p0603ffe38c)">
     <use xlink:href="#C0_0_81be46f1ba" x="190.411145" y="118.836117" style="fill: #ff0000; fill-opacity: 0.773288; stroke: #ff0000; stroke-opacity: 0.773288"/>
    </g>
    <g clip-path="url(#p0603ffe38c)">
     <use xlink:href="#C0_0_81be46f1ba" x="176.396485" y="135.398655" style="fill: #ff0000; fill-opacity: 0.803925; stroke: #ff0000; stroke-opacity: 0.803925"/>
    </g>
    <g clip-path="url(#p0603ffe38c)">
     <use xlink:href="#C0_0_81be46f1ba" x="175.273333" y="136.098798" style="fill: #ff0000; fill-opacity: 0.808534; stroke: #ff0000; stroke-opacity: 0.808534"/>
    </g>
    <g clip-path="url(#p0603ffe38c)">
     <use xlink:href="#C0_0_81be46f1ba" x="180.383907" y="133.242799" style="fill: #ff0000; fill-opacity: 0.830325; stroke: #ff0000; stroke-opacity: 0.830325"/>
    </g>
    <g clip-path="url(#p0603ffe38c)">
     <use xlink:href="#C0_0_81be46f1ba" x="184.214453" y="136.005331" style="fill: #ff0000; fill-opacity: 0.837749; stroke: #ff0000; stroke-opacity: 0.837749"/>
    </g>
    <g clip-path="url(#p0603ffe38c)">
     <use xlink:href="#C0_0_81be46f1ba" x="177.042578" y="148.662461" style="fill: #ff0000; fill-opacity: 0.85164; stroke: #ff0000; stroke-opacity: 0.85164"/>
    </g>
    <g clip-path="url(#p0603ffe38c)">
     <use xlink:href="#C0_0_81be46f1ba" x="183.018027" y="146.637398" style="fill: #ff0000; fill-opacity: 0.869151; stroke: #ff0000; stroke-opacity: 0.869151"/>
    </g>
    <g clip-path="url(#p0603ffe38c)">
     <use xlink:href="#C0_0_81be46f1ba" x="169.521384" y="151.444642" style="fill: #ff0000; fill-opacity: 0.882358; stroke: #ff0000; stroke-opacity: 0.882358"/>
    </g>
    <g clip-path="url(#p0603ffe38c)">
     <use xlink:href="#C0_0_81be46f1ba" x="173.47782" y="152.86668" style="fill: #ff0000; fill-opacity: 0.909466; stroke: #ff0000; stroke-opacity: 0.909466"/>
    </g>
    <g clip-path="url(#p0603ffe38c)">
     <use xlink:href="#C0_0_81be46f1ba" x="179.584487" y="148.195618" style="fill: #ff0000; fill-opacity: 0.911329; stroke: #ff0000; stroke-opacity: 0.911329"/>
    </g>
    <g clip-path="url(#p0603ffe38c)">
     <use xlink:href="#C0_0_81be46f1ba" x="179.529584" y="142.75394" style="fill: #ff0000; fill-opacity: 0.923325; stroke: #ff0000; stroke-opacity: 0.923325"/>
    </g>
    <g clip-path="url(#p0603ffe38c)">
     <use xlink:href="#C0_0_81be46f1ba" x="179.069214" y="139.545347" style="fill: #ff0000; fill-opacity: 0.925787; stroke: #ff0000; stroke-opacity: 0.925787"/>
    </g>
    <g clip-path="url(#p0603ffe38c)">
     <use xlink:href="#C0_0_81be46f1ba" x="175.203349" y="140.568486" style="fill: #ff0000; fill-opacity: 0.926287; stroke: #ff0000; stroke-opacity: 0.926287"/>
    </g>
    <g clip-path="url(#p0603ffe38c)">
     <use xlink:href="#C0_0_81be46f1ba" x="180.258372" y="144.50059" style="fill: #ff0000; fill-opacity: 0.930564; stroke: #ff0000; stroke-opacity: 0.930564"/>
    </g>
    <g clip-path="url(#p0603ffe38c)">
     <use xlink:href="#C0_0_81be46f1ba" x="174.379101" y="139.416707" style="fill: #ff0000; fill-opacity: 0.936267; stroke: #ff0000; stroke-opacity: 0.936267"/>
    </g>
    <g clip-path="url(#p0603ffe38c)">
     <use xlink:href="#C0_0_81be46f1ba" x="178.913245" y="137.236482" style="fill: #ff0000; fill-opacity: 0.938568; stroke: #ff0000; stroke-opacity: 0.938568"/>
    </g>
    <g clip-path="url(#p0603ffe38c)">
     <use xlink:href="#C0_0_81be46f1ba" x="175.866006" y="160.64761" style="fill: #ff0000; fill-opacity: 0.955254; stroke: #ff0000; stroke-opacity: 0.955254"/>
    </g>
    <g clip-path="url(#p0603ffe38c)">
     <use xlink:href="#C0_0_81be46f1ba" x="174.715302" y="157.736695" style="fill: #ff0000; fill-opacity: 0.993009; stroke: #ff0000; stroke-opacity: 0.993009"/>
    </g>
    <g clip-path="url(#p0603ffe38c)">
     <use xlink:href="#C0_0_81be46f1ba" x="176.940527" y="159.813206" style="fill: #ff0000; stroke: #ff0000"/>
    </g>
   </g>
  </g>
 </g>
 <defs>
  <clipPath id="p0603ffe38c">
   <rect x="103.104" y="41.472" width="266.112" height="266.112"/>
  </clipPath>
 </defs>
</svg>
